PathFileType	4	(X/Y/Z)	D:\TRACE\spotREDO_2-26-24\spot_Both_Motion_3_5-v60.trc
DataRate	CameraRate	NumFrames	NumMarkers	Units	OrigDataRate	OrigDataStartFrame	OrigNumFrames
100.00	100.00	      35	9	mm	100.00	1751	      7000
Frame#	Time	front left toe			Front right toe			aft left toe			aft right toe			Arm			FL body			FR body			AL Body			AR Body			
		X1	Y1	Z1	X2	Y2	Z2	X3	Y3	Z3	X4	Y4	Z4	X5	Y5	Z5	X6	Y6	Z6	X7	Y7	Z7	X8	Y8	Z8	X9	Y9	Z9	

1751	17.500	-257.44177	20.22894	-431.81989	162.33871	21.92186	-400.53159	-296.81363	16.98790	115.58066	109.25777	24.65562	193.54086	12.61260	711.44159	-729.71515	-139.39320	574.18365	-495.01205	15.48736	580.64532	-485.09131	-202.76222	558.10620	386.74503	-55.77935	553.95447	398.89157	
1752	17.510	-257.66940	20.50410	-431.86041	162.02415	22.08670	-401.07574	-297.07901	16.63944	115.44028	108.93151	24.92995	193.22253	12.63528	711.53851	-729.29095	-140.81044	575.13397	-495.13962	14.27183	580.80872	-485.17554	-204.50359	558.50085	386.40530	-57.59904	553.47272	398.67410	
1753	17.520	-257.43362	20.44899	-432.04672	162.61865	22.03267	-400.27908	-297.10281	16.60779	115.30488	109.01168	25.20088	193.32431	12.57479	711.40094	-729.21313	-142.06865	575.97186	-495.61417	12.86870	580.95740	-485.19128	-206.53427	558.87427	385.96658	-59.78453	553.87567	398.42334	
1754	17.530	-257.36072	20.51375	-432.18964	162.85045	21.40321	-400.61069	-297.09314	16.47517	115.30350	108.56247	25.24902	193.32291	12.68686	711.20746	-729.03992	-142.91925	576.22357	-495.69879	12.07961	581.33765	-485.82999	-208.27774	559.58374	385.49713	-61.49868	554.23389	397.85089	
1755	17.540	-257.43054	20.34810	-432.26178	162.97231	21.21503	-400.48801	-297.24698	16.42830	115.21793	108.19276	25.44155	193.26501	12.71276	710.91803	-729.12195	-143.72910	576.71423	-496.34802	11.20222	581.50189	-485.97116	-209.71652	560.09906	385.04727	-63.33116	554.56885	397.52698	
1756	17.550	-257.45651	20.31782	-432.33008	162.92062	21.15705	-400.66391	-297.37903	16.24766	115.14006	108.27660	25.48347	193.22862	13.06494	710.76440	-729.44806	-144.78571	577.15131	-496.77399	10.40595	581.72241	-486.36499	-211.43741	560.41876	384.51276	-64.91006	554.71741	397.12402	
1757	17.560	-257.48480	20.18767	-432.38885	163.05313	21.34739	-400.48410	-297.34656	16.22941	115.13853	108.33929	25.53669	193.21892	12.81472	710.99567	-729.55890	-145.19122	577.09253	-496.88721	9.72542	581.71967	-486.59616	-212.80727	560.73810	384.01593	-65.87496	554.90662	396.96109	
1758	17.570	-257.49609	19.98284	-432.54083	162.94502	21.37025	-400.57074	-297.28720	16.12360	115.06555	108.66090	25.77682	193.25549	12.52625	711.16980	-729.75208	-145.76909	577.31110	-497.70572	9.22687	581.63513	-486.89954	-213.66872	561.12030	383.50696	-67.37041	555.17310	396.53943	
1759	17.580	-257.41742	19.70942	-432.64679	162.99808	21.23125	-400.61780	-297.29306	16.08290	115.03396	108.62996	25.97880	193.17090	12.26451	711.23834	-730.25732	-146.52332	577.17554	-498.19742	8.64197	581.63672	-487.33176	-214.79359	561.46460	383.05505	-68.10810	555.58722	396.27890	
1760	17.590	-257.44333	19.63671	-432.73148	163.13422	21.14294	-400.64285	-297.30566	16.07318	115.03618	108.41427	26.01905	193.10844	11.77138	711.36316	-730.61743	-146.86452	577.01508	-498.48166	8.27909	581.65277	-487.69205	-215.54813	561.54944	382.61383	-68.96023	555.69562	395.66434	
1761	17.600	-257.50165	19.53234	-432.73581	163.03860	21.04593	-400.75217	-297.31613	16.10133	114.98358	108.33076	25.99277	192.94724	11.34099	711.48419	-730.95068	-147.24374	576.88654	-498.85495	7.69806	581.56573	-488.22491	-215.99380	561.73309	382.14355	-69.43197	555.89624	395.19446	
1762	17.610	-257.53067	19.53263	-432.76071	162.99699	21.00440	-400.89612	-297.33868	16.20707	114.83046	108.18594	25.83770	192.76817	10.66105	711.47852	-731.26367	-147.79364	577.05554	-499.43030	6.99110	581.70538	-488.74539	-216.28638	561.94421	381.72589	-69.77863	556.19769	394.75992	
1763	17.620	-257.59973	19.44336	-432.81351	162.98743	21.10000	-400.99393	-297.33698	16.24715	114.72502	108.33723	25.89130	192.72360	10.20516	711.52008	-731.57037	-148.57635	577.31769	-499.89398	6.55501	581.78833	-489.04907	-216.42972	562.13068	381.35443	-70.07983	556.45282	394.35699	
1764	17.630	-257.69635	19.26155	-432.88049	162.91692	21.05206	-401.12515	-297.30743	16.18972	114.77650	108.68974	25.96572	192.66109	9.87333	711.39960	-731.80072	-149.12708	577.23499	-500.21979	6.21498	581.77765	-489.45755	-216.44518	562.18695	380.99387	-70.11361	556.40039	393.80646	
1765	17.640	-257.72592	18.98095	-432.89868	162.97203	21.09146	-401.21930	-297.24371	16.25342	114.77548	108.78763	25.97622	192.63338	9.66604	711.24689	-731.97577	-149.33379	576.82043	-500.29776	5.44043	581.70447	-490.29965	-216.58250	562.44885	380.50470	-70.22225	556.58881	393.39233	
1766	17.650	-257.78662	18.85655	-432.86270	162.90965	21.08760	-401.28647	-297.17621	16.31223	114.72810	108.88892	25.94899	192.60851	9.80469	711.19141	-731.94305	-149.94188	576.88629	-501.27158	4.99363	581.69830	-490.76791	-216.56523	562.73169	380.18967	-70.02115	556.85419	392.94775	
1767	17.660	-257.79355	18.81536	-432.86530	162.97290	21.10932	-401.35791	-297.14850	16.43571	114.67104	109.04369	25.94930	192.60083	10.07529	711.17419	-731.82635	-150.35121	576.97943	-501.68640	4.67127	581.60114	-491.27264	-216.43947	562.86212	379.94623	-69.71309	557.11346	392.41873	
1768	17.670	-257.79834	18.82470	-432.87512	162.93614	20.94380	-401.51413	-297.15253	16.57896	114.57285	109.05261	25.95382	192.55632	10.32304	711.12933	-731.80438	-150.56503	576.89850	-501.89713	4.42206	581.63196	-491.65152	-216.37668	563.20074	379.48679	-69.52582	557.53204	392.16220	
1769	17.680	-257.81589	18.75728	-432.95996	163.00867	20.80870	-401.50027	-297.14685	16.59386	114.54231	108.98843	25.93283	192.45056	10.70600	711.04382	-731.77802	-150.71544	576.85291	-502.41022	4.20349	581.54474	-492.06168	-216.40602	563.31561	379.03427	-69.60989	557.63287	391.62881	
1770	17.690	-257.84216	18.74872	-433.04572	163.04295	20.67158	-401.49423	-297.30734	16.63561	114.35961	109.00842	25.93822	192.41345	11.12918	710.97577	-731.91077	-150.64833	576.65680	-502.87637	4.17681	581.38190	-492.53961	-216.42287	563.36035	378.62271	-69.62174	557.65741	391.15073	
1771	17.700	-257.85535	18.70846	-433.12344	163.05627	20.66551	-401.47672	-297.29816	16.47625	114.29031	108.94038	25.98155	192.38496	11.33617	710.97229	-731.99213	-150.67252	576.77802	-503.31995	4.34113	581.45227	-492.93387	-216.56104	563.36993	378.13614	-69.75783	557.70563	390.83264	
1772	17.710	-257.79956	18.69149	-433.17108	163.18109	20.59166	-401.41605	-297.30664	16.50880	114.25229	108.93556	25.98193	192.35515	11.43232	711.14618	-732.13672	-150.34146	576.92767	-503.74316	4.60975	581.47638	-493.42902	-216.68033	563.53082	377.69492	-69.87094	557.84161	390.36371	
1773	17.720	-257.60791	18.79278	-433.29132	163.20610	20.56807	-401.42981	-297.35168	16.64427	114.09339	108.92545	26.08011	192.40428	11.55212	711.32568	-732.27203	-150.09497	577.10907	-504.17270	5.16244	581.54016	-493.75494	-216.64532	563.63947	377.29996	-69.98074	557.91565	390.00388	
1774	17.730	-257.52554	18.78771	-433.36053	163.26775	20.51554	-401.52322	-297.39978	16.62896	114.00542	108.78208	25.99923	192.24402	11.63045	711.42249	-732.37500	-149.70264	576.90796	-504.47998	5.21773	581.66321	-493.97638	-216.64508	563.77057	376.73950	-70.14630	557.98181	389.61887	
1775	17.740	-257.56018	18.61794	-433.46466	163.29289	20.52145	-401.42804	-297.42087	16.66668	113.97240	108.57362	26.12365	192.17885	11.81249	711.36298	-732.82574	-149.61084	576.71979	-504.63129	5.35315	581.41620	-494.33932	-216.71852	564.07056	376.34210	-70.07549	558.16003	389.32266	
1776	17.750	-257.66202	18.33156	-433.63617	163.33621	20.24940	-401.64523	-297.41519	16.75624	113.96354	108.53749	26.30437	192.16847	11.95463	711.33783	-733.78015	-149.12950	576.94348	-505.43640	6.22488	581.01849	-494.52371	-216.78238	564.43713	376.04697	-70.13088	558.30927	389.04926	
1777	17.760	-257.66556	18.33610	-433.67804	163.16508	19.61520	-402.05673	-297.38358	16.70775	113.87239	108.57259	26.28050	192.16524	11.57190	711.15186	-735.73297	-148.33244	576.84534	-505.65579	6.58153	580.92352	-494.66086	-216.86298	564.48047	375.79407	-70.19801	558.24506	388.71793	
1778	17.770	-257.52249	18.40853	-433.84207	163.25645	19.89378	-401.71509	-297.44464	16.70614	113.69556	108.37294	26.30687	192.13811	11.09905	711.02509	-738.49744	-147.51881	576.90173	-505.67789	7.51966	580.91608	-494.57019	-216.94147	564.46820	375.63580	-70.18343	558.16504	388.86057	
1779	17.780	-257.47839	18.50836	-433.94711	163.33055	19.87116	-401.57007	-297.51382	16.66336	113.74970	108.27160	26.31403	192.19322	9.91585	711.15118	-741.98346	-146.46867	577.18182	-505.64105	8.56909	580.90454	-494.28818	-217.03404	564.32916	375.56000	-70.35321	557.93036	388.97491	
1780	17.790	-257.46237	18.59738	-433.99557	163.26353	19.17934	-401.77341	-297.52133	16.71509	113.62698	108.22607	26.34135	192.22287	8.11652	711.87244	-745.90704	-145.47102	577.05994	-505.02676	9.56546	581.01819	-493.93948	-217.06009	564.17535	375.58002	-70.55816	557.74139	389.19092	
1781	17.800	-257.42255	18.55015	-434.04678	163.30928	18.80535	-401.64438	-297.57007	16.68605	113.62641	108.21861	26.39004	192.30739	6.42485	712.49353	-749.54272	-144.71497	577.24860	-505.14090	10.29390	580.96173	-493.68936	-216.81384	564.02411	375.71866	-70.41186	557.50122	389.49286	
1782	17.810	-257.44876	18.48870	-434.13986	163.22070	18.53938	-401.62268	-297.64679	16.80343	113.66702	107.98429	26.31681	192.29433	4.77804	713.24762	-752.78381	-144.03865	577.15399	-504.94318	10.85268	580.91449	-493.43387	-216.40378	563.99255	375.96725	-69.70639	557.18933	389.70233	
1783	17.820	-257.49268	18.33443	-434.15601	163.19289	18.49718	-401.71118	-297.65042	16.99117	113.55778	108.00628	26.28349	192.26421	3.28399	713.87476	-755.70490	-143.84236	577.06091	-504.52365	10.95976	580.85559	-493.36493	-215.61528	563.95923	376.28604	-69.04785	557.21735	389.86993	
1784	17.830	-257.67084	18.26512	-434.01962	163.15186	18.56894	-401.76031	-297.67767	17.30333	113.69512	108.22579	26.28164	192.26436	3.11117	714.49506	-758.11359	-144.11749	577.15350	-504.26758	10.83247	580.76428	-493.31546	-214.20222	563.80975	376.76279	-67.57787	557.10089	389.97971	
1785	17.840	-257.95248	18.00427	-433.81161	162.90826	18.79692	-401.99005	-297.64154	17.60915	113.69906	108.21159	26.09812	192.12326	3.33775	715.12164	-760.09235	-144.84692	577.15436	-504.08624	10.32407	580.74854	-493.44058	-212.69774	563.69965	377.14890	-66.57442	556.98969	390.04071	
